STARTFONT 2.1
COMMENT Sources:
COMMENT -Misc-Fixed-Medium-R-Normal--13-120-75-75-C-70-ISO10646-1 $ucs-fonts: 7x13.bdf,v 1.52 2008-04-19 22:55:01+01 mgk25 Rel $
COMMENT -windows-proggyclean-medium-r-normal--13-80-96-96-c-70-iso8859-1
FONT -dylex-crawl-Medium-R-Normal--14-140-75-75-C-140-ISO10646-1
SIZE 14 78 78
FONTBOUNDINGBOX 14 14 0 -3
STARTPROPERTIES 23
FONTNAME_REGISTRY ""
FOUNDRY "dylex"
FAMILY_NAME "crawl"
WEIGHT_NAME "Medium"
SLANT "R"
SETWIDTH_NAME "Normal"
ADD_STYLE_NAME ""
PIXEL_SIZE 14
POINT_SIZE 140
RESOLUTION_X 75
RESOLUTION_Y 75
SPACING "C"
AVERAGE_WIDTH 140
CHARSET_REGISTRY "ISO10646"
CHARSET_ENCODING "1"
COPYRIGHT "Public domain font.  Share and enjoy."
DESTINATION 1
DEFAULT_CHAR 0
FONT_DESCENT 3
FONT_ASCENT 11
CAP_HEIGHT 9
X_HEIGHT 6
_GBDFED_INFO "Edited with gbdfed 1.6."
ENDPROPERTIES
CHARS 176
STARTCHAR char0
ENCODING 0
SWIDTH 923 0
DWIDTH 14 0
BBX 14 14 0 -3
BITMAP
0000
5550
0008
4000
0008
4000
0008
4000
0008
4000
0008
4000
2AA8
0000
ENDCHAR
STARTCHAR char1
ENCODING 1
SWIDTH 923 0
DWIDTH 14 0
BBX 14 14 0 -3
BITMAP
0000
0000
0000
0200
0700
0F80
1FC0
0F80
0700
0200
0000
0000
0000
0000
ENDCHAR
STARTCHAR char2
ENCODING 2
SWIDTH 923 0
DWIDTH 14 0
BBX 14 14 0 -3
BITMAP
5554
AAA8
5554
AAA8
5554
AAA8
5554
AAA8
5554
AAA8
5554
AAA8
5554
AAA8
ENDCHAR
STARTCHAR char3
ENCODING 3
SWIDTH 923 0
DWIDTH 14 0
BBX 14 14 0 -3
BITMAP
0000
6600
6600
7E00
6600
6600
01F8
0060
0060
0060
0060
0000
0000
0000
ENDCHAR
STARTCHAR char4
ENCODING 4
SWIDTH 923 0
DWIDTH 14 0
BBX 14 14 0 -3
BITMAP
0000
7C00
6000
7800
6000
61F0
6180
01E0
0180
0180
0180
0000
0000
0000
ENDCHAR
STARTCHAR char5
ENCODING 5
SWIDTH 923 0
DWIDTH 14 0
BBX 14 14 0 -3
BITMAP
0000
3800
6400
6000
6000
65E0
3990
0190
01E0
01B0
0190
0000
0000
0000
ENDCHAR
STARTCHAR char6
ENCODING 6
SWIDTH 923 0
DWIDTH 14 0
BBX 14 14 0 -3
BITMAP
0000
6000
6000
6000
6000
61F0
7D80
01E0
0180
0180
0180
0000
0000
0000
ENDCHAR
STARTCHAR char7
ENCODING 7
SWIDTH 923 0
DWIDTH 14 0
BBX 14 14 0 -3
BITMAP
0000
0000
1800
2400
2400
1800
0000
0000
0000
0000
0000
0000
0000
0000
ENDCHAR
STARTCHAR char8
ENCODING 8
SWIDTH 923 0
DWIDTH 14 0
BBX 14 14 0 -3
BITMAP
0000
0000
0200
0200
0200
1FC0
0200
0200
0200
0000
1FC0
0000
0000
0000
ENDCHAR
STARTCHAR char9
ENCODING 9
SWIDTH 923 0
DWIDTH 14 0
BBX 14 14 0 -3
BITMAP
0000
6300
7300
7B00
6F00
67C0
63C0
00C0
00C0
00C0
00F8
0000
0000
0000
ENDCHAR
STARTCHAR char10
ENCODING 10
SWIDTH 923 0
DWIDTH 14 0
BBX 14 14 0 -3
BITMAP
0000
6300
6300
6300
3600
1FF0
08C0
00C0
00C0
00C0
00C0
0000
0000
0000
ENDCHAR
STARTCHAR char11
ENCODING 11
SWIDTH 923 0
DWIDTH 14 0
BBX 14 14 0 -3
BITMAP
0200
0200
0200
0200
0200
0200
FE00
0000
0000
0000
0000
0000
0000
0000
ENDCHAR
STARTCHAR char12
ENCODING 12
SWIDTH 923 0
DWIDTH 14 0
BBX 14 14 0 -3
BITMAP
0000
0000
0000
0000
0000
0000
FE00
0200
0200
0200
0200
0200
0200
0200
ENDCHAR
STARTCHAR char13
ENCODING 13
SWIDTH 923 0
DWIDTH 14 0
BBX 14 14 0 -3
BITMAP
0000
0000
0000
0000
0000
0000
03FC
0200
0200
0200
0200
0200
0200
0200
ENDCHAR
STARTCHAR char14
ENCODING 14
SWIDTH 923 0
DWIDTH 14 0
BBX 14 14 0 -3
BITMAP
0200
0200
0200
0200
0200
0200
03FC
0000
0000
0000
0000
0000
0000
0000
ENDCHAR
STARTCHAR char15
ENCODING 15
SWIDTH 923 0
DWIDTH 14 0
BBX 14 14 0 -3
BITMAP
0200
0200
0200
0200
0200
0200
FFFC
0200
0200
0200
0200
0200
0200
0200
ENDCHAR
STARTCHAR char16
ENCODING 16
SWIDTH 923 0
DWIDTH 14 0
BBX 14 14 0 -3
BITMAP
FFFC
0000
0000
0000
0000
0000
0000
0000
0000
0000
0000
0000
0000
0000
ENDCHAR
STARTCHAR char17
ENCODING 17
SWIDTH 923 0
DWIDTH 14 0
BBX 14 14 0 -3
BITMAP
0000
0000
0000
FFFC
0000
0000
0000
0000
0000
0000
0000
0000
0000
0000
ENDCHAR
STARTCHAR char18
ENCODING 18
SWIDTH 923 0
DWIDTH 14 0
BBX 14 14 0 -3
BITMAP
0000
0000
0000
0000
0000
0000
FFFC
0000
0000
0000
0000
0000
0000
0000
ENDCHAR
STARTCHAR char19
ENCODING 19
SWIDTH 923 0
DWIDTH 14 0
BBX 14 14 0 -3
BITMAP
0000
0000
0000
0000
0000
0000
0000
0000
0000
0000
FFFC
0000
0000
0000
ENDCHAR
STARTCHAR char20
ENCODING 20
SWIDTH 923 0
DWIDTH 14 0
BBX 14 14 0 -3
BITMAP
0000
0000
0000
0000
0000
0000
0000
0000
0000
0000
0000
0000
0000
FFFC
ENDCHAR
STARTCHAR char21
ENCODING 21
SWIDTH 923 0
DWIDTH 14 0
BBX 14 14 0 -3
BITMAP
0200
0200
0200
0200
0200
0200
03FC
0200
0200
0200
0200
0200
0200
0200
ENDCHAR
STARTCHAR char22
ENCODING 22
SWIDTH 923 0
DWIDTH 14 0
BBX 14 14 0 -3
BITMAP
0200
0200
0200
0200
0200
0200
FE00
0200
0200
0200
0200
0200
0200
0200
ENDCHAR
STARTCHAR char23
ENCODING 23
SWIDTH 923 0
DWIDTH 14 0
BBX 14 14 0 -3
BITMAP
0200
0200
0200
0200
0200
0200
FFFC
0000
0000
0000
0000
0000
0000
0000
ENDCHAR
STARTCHAR char24
ENCODING 24
SWIDTH 923 0
DWIDTH 14 0
BBX 14 14 0 -3
BITMAP
0000
0000
0000
0000
0000
0000
FFFC
0200
0200
0200
0200
0200
0200
0200
ENDCHAR
STARTCHAR char25
ENCODING 25
SWIDTH 923 0
DWIDTH 14 0
BBX 14 14 0 -3
BITMAP
0200
0200
0200
0200
0200
0200
0200
0200
0200
0200
0200
0200
0200
0200
ENDCHAR
STARTCHAR char26
ENCODING 26
SWIDTH 923 0
DWIDTH 14 0
BBX 14 14 0 -3
BITMAP
0000
0000
0038
01C0
0E00
7000
0E00
01C0
0038
0000
7FF8
0000
0000
0000
ENDCHAR
STARTCHAR char27
ENCODING 27
SWIDTH 923 0
DWIDTH 14 0
BBX 14 14 0 -3
BITMAP
0000
0000
7000
0E00
01C0
0038
01C0
0E00
7000
0000
7FF8
0000
0000
0000
ENDCHAR
STARTCHAR char28
ENCODING 28
SWIDTH 923 0
DWIDTH 14 0
BBX 14 14 0 -3
BITMAP
0000
0000
0000
0000
0000
7FF8
1860
1860
1860
1860
1860
0000
0000
0000
ENDCHAR
STARTCHAR char29
ENCODING 29
SWIDTH 923 0
DWIDTH 14 0
BBX 14 14 0 -3
BITMAP
0000
0000
0000
00C0
00C0
3FF0
0300
0300
3FF0
0C00
0C00
0000
0000
0000
ENDCHAR
STARTCHAR char30
ENCODING 30
SWIDTH 923 0
DWIDTH 14 0
BBX 14 14 0 -3
BITMAP
0000
0000
03E0
0630
0C00
0600
3FC0
0600
0C00
1F30
19E0
0000
0000
0000
ENDCHAR
STARTCHAR char31
ENCODING 31
SWIDTH 923 0
DWIDTH 14 0
BBX 14 14 0 -3
BITMAP
0000
0000
0000
0000
0000
0000
0780
0000
0000
0000
0000
0000
0000
0000
ENDCHAR
STARTCHAR char32
ENCODING 32
SWIDTH 923 0
DWIDTH 14 0
BBX 14 14 0 -3
BITMAP
0000
0000
0000
0000
0000
0000
0000
0000
0000
0000
0000
0000
0000
0000
ENDCHAR
STARTCHAR char33
ENCODING 33
SWIDTH 923 0
DWIDTH 14 0
BBX 14 14 0 -3
BITMAP
0000
0000
0300
0300
0300
0300
0300
0300
0300
0000
0300
0000
0000
0000
ENDCHAR
STARTCHAR char34
ENCODING 34
SWIDTH 923 0
DWIDTH 14 0
BBX 14 14 0 -3
BITMAP
0000
0000
0CC0
0CC0
0CC0
0000
0000
0000
0000
0000
0000
0000
0000
0000
ENDCHAR
STARTCHAR char35
ENCODING 35
SWIDTH 923 0
DWIDTH 14 0
BBX 14 14 0 -3
BITMAP
0000
0000
0CC0
0CC0
7FF8
0CC0
0CC0
0CC0
7FF8
0CC0
0CC0
0000
0000
0000
ENDCHAR
STARTCHAR char36
ENCODING 36
SWIDTH 923 0
DWIDTH 14 0
BBX 14 14 0 -3
BITMAP
0000
0000
0300
1FE0
3330
3300
1FE0
0330
3330
1FE0
0300
0000
0000
0000
ENDCHAR
STARTCHAR char37
ENCODING 37
SWIDTH 923 0
DWIDTH 14 0
BBX 14 14 0 -3
BITMAP
0000
0000
1830
2460
18C0
0180
0300
0600
0C60
1890
3060
0000
0000
0000
ENDCHAR
STARTCHAR char38
ENCODING 38
SWIDTH 923 0
DWIDTH 14 0
BBX 14 14 0 -3
BITMAP
0000
0000
0F00
1980
1B00
0E00
0F00
19E0
30C0
31E0
1F30
0000
0000
0000
ENDCHAR
STARTCHAR char39
ENCODING 39
SWIDTH 923 0
DWIDTH 14 0
BBX 14 14 0 -3
BITMAP
0000
0000
0300
0300
0300
0000
0000
0000
0000
0000
0000
0000
0000
0000
ENDCHAR
STARTCHAR char40
ENCODING 40
SWIDTH 923 0
DWIDTH 14 0
BBX 14 14 0 -3
BITMAP
0000
0180
0300
0600
0C00
0C00
0C00
0C00
0C00
0600
0300
0180
0000
0000
ENDCHAR
STARTCHAR char41
ENCODING 41
SWIDTH 923 0
DWIDTH 14 0
BBX 14 14 0 -3
BITMAP
0000
0600
0300
0180
00C0
00C0
00C0
00C0
00C0
0180
0300
0600
0000
0000
ENDCHAR
STARTCHAR char42
ENCODING 42
SWIDTH 923 0
DWIDTH 14 0
BBX 14 14 0 -3
BITMAP
0000
0000
0000
0300
1B60
0FC0
0780
0FC0
1B60
0300
0000
0000
0000
0000
ENDCHAR
STARTCHAR char43
ENCODING 43
SWIDTH 923 0
DWIDTH 14 0
BBX 14 14 0 -3
BITMAP
0000
0000
0000
0300
0300
0300
3FF0
0300
0300
0300
0000
0000
0000
0000
ENDCHAR
STARTCHAR char44
ENCODING 44
SWIDTH 923 0
DWIDTH 14 0
BBX 14 14 0 -3
BITMAP
0000
0000
0000
0000
0000
0000
0000
0000
0300
0300
0300
0600
0000
0000
ENDCHAR
STARTCHAR char45
ENCODING 45
SWIDTH 923 0
DWIDTH 14 0
BBX 14 14 0 -3
BITMAP
0000
0000
0000
0000
0000
0000
1FE0
0000
0000
0000
0000
0000
0000
0000
ENDCHAR
STARTCHAR char46
ENCODING 46
SWIDTH 923 0
DWIDTH 14 0
BBX 14 14 0 -3
BITMAP
0000
0000
0000
0000
0000
0000
0000
0000
0000
0300
0300
0000
0000
0000
ENDCHAR
STARTCHAR char47
ENCODING 47
SWIDTH 923 0
DWIDTH 14 0
BBX 14 14 0 -3
BITMAP
0000
0000
0030
0060
00C0
0180
0300
0600
0C00
1800
3000
0000
0000
0000
ENDCHAR
STARTCHAR char48
ENCODING 48
SWIDTH 923 0
DWIDTH 14 0
BBX 14 14 0 -3
BITMAP
0000
0000
0FC0
1860
3030
6018
6318
6018
3030
1860
0FC0
0000
0000
0000
ENDCHAR
STARTCHAR char49
ENCODING 49
SWIDTH 923 0
DWIDTH 14 0
BBX 14 14 0 -3
BITMAP
0000
0000
0700
0F00
1B00
0300
0300
0300
0300
0300
3FF0
0000
0000
0000
ENDCHAR
STARTCHAR char50
ENCODING 50
SWIDTH 923 0
DWIDTH 14 0
BBX 14 14 0 -3
BITMAP
0000
0000
1FE0
3030
6018
0018
0060
0180
0600
1800
7FF8
0000
0000
0000
ENDCHAR
STARTCHAR char51
ENCODING 51
SWIDTH 923 0
DWIDTH 14 0
BBX 14 14 0 -3
BITMAP
0000
0000
1FE0
3030
6018
0030
03E0
0030
6018
3030
1FE0
0000
0000
0000
ENDCHAR
STARTCHAR char52
ENCODING 52
SWIDTH 923 0
DWIDTH 14 0
BBX 14 14 0 -3
BITMAP
0000
0000
0060
01E0
0660
1860
6060
7FF8
0060
0060
0060
0000
0000
0000
ENDCHAR
STARTCHAR char53
ENCODING 53
SWIDTH 923 0
DWIDTH 14 0
BBX 14 14 0 -3
BITMAP
0000
0000
7FF0
6000
6000
6000
7FE0
0030
0018
6030
3FE0
0000
0000
0000
ENDCHAR
STARTCHAR char54
ENCODING 54
SWIDTH 923 0
DWIDTH 14 0
BBX 14 14 0 -3
BITMAP
0000
0000
1FE0
3030
6000
6000
7FE0
6030
6018
3030
1FE0
0000
0000
0000
ENDCHAR
STARTCHAR char55
ENCODING 55
SWIDTH 923 0
DWIDTH 14 0
BBX 14 14 0 -3
BITMAP
0000
0000
3FF8
0018
0030
0060
00C0
0180
0300
0600
0C00
0000
0000
0000
ENDCHAR
STARTCHAR char56
ENCODING 56
SWIDTH 923 0
DWIDTH 14 0
BBX 14 14 0 -3
BITMAP
0000
0000
1FE0
3030
6018
3030
1FE0
3030
6018
3030
1FE0
0000
0000
0000
ENDCHAR
STARTCHAR char57
ENCODING 57
SWIDTH 923 0
DWIDTH 14 0
BBX 14 14 0 -3
BITMAP
0000
0000
1FE0
3030
6018
3018
1FF8
0018
0018
3030
1FE0
0000
0000
0000
ENDCHAR
STARTCHAR char58
ENCODING 58
SWIDTH 923 0
DWIDTH 14 0
BBX 14 14 0 -3
BITMAP
0000
0000
0000
0000
0000
0300
0300
0000
0000
0300
0300
0000
0000
0000
ENDCHAR
STARTCHAR char59
ENCODING 59
SWIDTH 923 0
DWIDTH 14 0
BBX 14 14 0 -3
BITMAP
0000
0000
0000
0000
0000
0300
0300
0000
0000
0300
0300
0600
0000
0000
ENDCHAR
STARTCHAR char60
ENCODING 60
SWIDTH 923 0
DWIDTH 14 0
BBX 14 14 0 -3
BITMAP
0000
0000
0030
00C0
0300
0C00
3000
0C00
0300
00C0
0030
0000
0000
0000
ENDCHAR
STARTCHAR char61
ENCODING 61
SWIDTH 923 0
DWIDTH 14 0
BBX 14 14 0 -3
BITMAP
0000
0000
0000
0000
0000
3FF0
0000
0000
3FF0
0000
0000
0000
0000
0000
ENDCHAR
STARTCHAR char62
ENCODING 62
SWIDTH 923 0
DWIDTH 14 0
BBX 14 14 0 -3
BITMAP
0000
0000
3000
0C00
0300
00C0
0030
00C0
0300
0C00
3000
0000
0000
0000
ENDCHAR
STARTCHAR char63
ENCODING 63
SWIDTH 923 0
DWIDTH 14 0
BBX 14 14 0 -3
BITMAP
0000
0000
0FC0
1860
3030
0060
0180
0300
0300
0000
0300
0000
0000
0000
ENDCHAR
STARTCHAR char64
ENCODING 64
SWIDTH 923 0
DWIDTH 14 0
BBX 14 14 0 -3
BITMAP
0000
0000
1FE0
3030
6758
6CD8
6CD8
6CD8
6770
3000
1FE0
0000
0000
0000
ENDCHAR
STARTCHAR char65
ENCODING 65
SWIDTH 923 0
DWIDTH 14 0
BBX 14 14 0 -3
BITMAP
0000
0000
0300
0780
0CC0
1860
3030
7FF8
6018
6018
6018
0000
0000
0000
ENDCHAR
STARTCHAR char66
ENCODING 66
SWIDTH 923 0
DWIDTH 14 0
BBX 14 14 0 -3
BITMAP
0000
0000
7F80
60C0
6060
60C0
7FC0
6060
6030
6060
7FC0
0000
0000
0000
ENDCHAR
STARTCHAR char67
ENCODING 67
SWIDTH 923 0
DWIDTH 14 0
BBX 14 14 0 -3
BITMAP
0000
0000
1FE0
3030
6018
6000
6000
6000
6018
3030
1FE0
0000
0000
0000
ENDCHAR
STARTCHAR char68
ENCODING 68
SWIDTH 923 0
DWIDTH 14 0
BBX 14 14 0 -3
BITMAP
0000
0000
7FC0
6060
6030
6018
6018
6018
6030
6060
7FC0
0000
0000
0000
ENDCHAR
STARTCHAR char69
ENCODING 69
SWIDTH 923 0
DWIDTH 14 0
BBX 14 14 0 -3
BITMAP
0000
0000
7FF0
6000
6000
6000
7F80
6000
6000
6000
7FF0
0000
0000
0000
ENDCHAR
STARTCHAR char70
ENCODING 70
SWIDTH 923 0
DWIDTH 14 0
BBX 14 14 0 -3
BITMAP
0000
0000
7FF0
6000
6000
6000
7F80
6000
6000
6000
6000
0000
0000
0000
ENDCHAR
STARTCHAR char71
ENCODING 71
SWIDTH 923 0
DWIDTH 14 0
BBX 14 14 0 -3
BITMAP
0000
0000
1FE0
3030
6018
6000
6000
60F8
6018
3038
1FE8
0000
0000
0000
ENDCHAR
STARTCHAR char72
ENCODING 72
SWIDTH 923 0
DWIDTH 14 0
BBX 14 14 0 -3
BITMAP
0000
0000
6018
6018
6018
6018
7FF8
6018
6018
6018
6018
0000
0000
0000
ENDCHAR
STARTCHAR char73
ENCODING 73
SWIDTH 923 0
DWIDTH 14 0
BBX 14 14 0 -3
BITMAP
0000
0000
1FE0
0300
0300
0300
0300
0300
0300
0300
1FE0
0000
0000
0000
ENDCHAR
STARTCHAR char74
ENCODING 74
SWIDTH 923 0
DWIDTH 14 0
BBX 14 14 0 -3
BITMAP
0000
0000
03F0
00C0
00C0
00C0
00C0
30C0
30C0
1980
0F00
0000
0000
0000
ENDCHAR
STARTCHAR char75
ENCODING 75
SWIDTH 923 0
DWIDTH 14 0
BBX 14 14 0 -3
BITMAP
0000
0000
6060
60C0
6180
6300
7E00
6300
6180
60C0
6060
0000
0000
0000
ENDCHAR
STARTCHAR char76
ENCODING 76
SWIDTH 923 0
DWIDTH 14 0
BBX 14 14 0 -3
BITMAP
0000
0000
6000
6000
6000
6000
6000
6000
6000
6000
7FF0
0000
0000
0000
ENDCHAR
STARTCHAR char77
ENCODING 77
SWIDTH 923 0
DWIDTH 14 0
BBX 14 14 0 -3
BITMAP
0000
0000
6018
7038
7878
6CD8
6798
6318
6018
6018
6018
0000
0000
0000
ENDCHAR
STARTCHAR char78
ENCODING 78
SWIDTH 923 0
DWIDTH 14 0
BBX 14 14 0 -3
BITMAP
0000
0000
7018
7818
6C18
6618
6318
6198
60D8
6078
6038
0000
0000
0000
ENDCHAR
STARTCHAR char79
ENCODING 79
SWIDTH 923 0
DWIDTH 14 0
BBX 14 14 0 -3
BITMAP
0000
0000
1FE0
3030
6018
6018
6018
6018
6018
3030
1FE0
0000
0000
0000
ENDCHAR
STARTCHAR char80
ENCODING 80
SWIDTH 923 0
DWIDTH 14 0
BBX 14 14 0 -3
BITMAP
0000
0000
7FC0
6060
6030
6030
6060
7FC0
6000
6000
6000
0000
0000
0000
ENDCHAR
STARTCHAR char81
ENCODING 81
SWIDTH 923 0
DWIDTH 14 0
BBX 14 14 0 -3
BITMAP
0000
0000
1FE0
3030
6018
6018
6018
6018
60D8
3070
1FF0
0018
0000
0000
ENDCHAR
STARTCHAR char82
ENCODING 82
SWIDTH 923 0
DWIDTH 14 0
BBX 14 14 0 -3
BITMAP
0000
0000
7FC0
6060
6030
6030
6060
7FC0
60C0
6060
6030
0000
0000
0000
ENDCHAR
STARTCHAR char83
ENCODING 83
SWIDTH 923 0
DWIDTH 14 0
BBX 14 14 0 -3
BITMAP
0000
0000
1FF0
6018
6000
6000
1FE0
0018
0018
6018
3FF0
0000
0000
0000
ENDCHAR
STARTCHAR char84
ENCODING 84
SWIDTH 923 0
DWIDTH 14 0
BBX 14 14 0 -3
BITMAP
0000
0000
3FF0
0300
0300
0300
0300
0300
0300
0300
0300
0000
0000
0000
ENDCHAR
STARTCHAR char85
ENCODING 85
SWIDTH 923 0
DWIDTH 14 0
BBX 14 14 0 -3
BITMAP
0000
0000
6018
6018
6018
6018
6018
6018
6018
3030
1FE0
0000
0000
0000
ENDCHAR
STARTCHAR char86
ENCODING 86
SWIDTH 923 0
DWIDTH 14 0
BBX 14 14 0 -3
BITMAP
0000
0000
6018
3030
3030
1860
1860
0CC0
0780
0780
0300
0000
0000
0000
ENDCHAR
STARTCHAR char87
ENCODING 87
SWIDTH 923 0
DWIDTH 14 0
BBX 14 14 0 -3
BITMAP
0000
0000
6018
6018
6318
3330
37B0
3FF0
1CE0
1CE0
1860
0000
0000
0000
ENDCHAR
STARTCHAR char88
ENCODING 88
SWIDTH 923 0
DWIDTH 14 0
BBX 14 14 0 -3
BITMAP
0000
0000
3030
1860
0CC0
0780
0300
0780
0CC0
1860
3030
0000
0000
0000
ENDCHAR
STARTCHAR char89
ENCODING 89
SWIDTH 923 0
DWIDTH 14 0
BBX 14 14 0 -3
BITMAP
0000
0000
3030
1860
0CC0
0780
0300
0300
0300
0300
0300
0000
0000
0000
ENDCHAR
STARTCHAR char90
ENCODING 90
SWIDTH 923 0
DWIDTH 14 0
BBX 14 14 0 -3
BITMAP
0000
0000
3FF0
0060
00C0
0180
0300
0600
0C00
1800
3FF0
0000
0000
0000
ENDCHAR
STARTCHAR char91
ENCODING 91
SWIDTH 923 0
DWIDTH 14 0
BBX 14 14 0 -3
BITMAP
0000
07C0
0600
0600
0600
0600
0600
0600
0600
0600
0600
07C0
0000
0000
ENDCHAR
STARTCHAR char92
ENCODING 92
SWIDTH 923 0
DWIDTH 14 0
BBX 14 14 0 -3
BITMAP
0000
0000
3000
1800
0C00
0600
0300
0180
00C0
0060
0030
0000
0000
0000
ENDCHAR
STARTCHAR char93
ENCODING 93
SWIDTH 923 0
DWIDTH 14 0
BBX 14 14 0 -3
BITMAP
0000
0F80
0180
0180
0180
0180
0180
0180
0180
0180
0180
0F80
0000
0000
ENDCHAR
STARTCHAR char94
ENCODING 94
SWIDTH 923 0
DWIDTH 14 0
BBX 14 14 0 -3
BITMAP
0000
0000
0300
0780
0CC0
1860
3030
0000
0000
0000
0000
0000
0000
0000
ENDCHAR
STARTCHAR char95
ENCODING 95
SWIDTH 923 0
DWIDTH 14 0
BBX 14 14 0 -3
BITMAP
0000
0000
0000
0000
0000
0000
0000
0000
0000
0000
0000
7FF8
0000
0000
ENDCHAR
STARTCHAR char96
ENCODING 96
SWIDTH 923 0
DWIDTH 14 0
BBX 14 14 0 -3
BITMAP
0000
0000
0600
0300
0180
0000
0000
0000
0000
0000
0000
0000
0000
0000
ENDCHAR
STARTCHAR char97
ENCODING 97
SWIDTH 923 0
DWIDTH 14 0
BBX 14 14 0 -3
BITMAP
0000
0000
0000
0000
0FF0
1818
0018
1FF8
3018
3018
1FE8
0000
0000
0000
ENDCHAR
STARTCHAR char98
ENCODING 98
SWIDTH 923 0
DWIDTH 14 0
BBX 14 14 0 -3
BITMAP
0000
0000
6000
6000
6000
6FC0
7060
6030
6030
7060
6FC0
0000
0000
0000
ENDCHAR
STARTCHAR char99
ENCODING 99
SWIDTH 923 0
DWIDTH 14 0
BBX 14 14 0 -3
BITMAP
0000
0000
0000
0000
0000
1FE0
3030
6000
6000
3030
1FE0
0000
0000
0000
ENDCHAR
STARTCHAR char100
ENCODING 100
SWIDTH 923 0
DWIDTH 14 0
BBX 14 14 0 -3
BITMAP
0000
0000
0018
0018
0018
0FD8
1838
3018
3018
1838
0FD8
0000
0000
0000
ENDCHAR
STARTCHAR char101
ENCODING 101
SWIDTH 923 0
DWIDTH 14 0
BBX 14 14 0 -3
BITMAP
0000
0000
0000
0000
1FC0
3060
6030
7FF0
6000
3030
1FE0
0000
0000
0000
ENDCHAR
STARTCHAR char102
ENCODING 102
SWIDTH 923 0
DWIDTH 14 0
BBX 14 14 0 -3
BITMAP
0000
0000
07C0
0C60
0C00
3F00
0C00
0C00
0C00
0C00
0C00
0000
0000
0000
ENDCHAR
STARTCHAR char103
ENCODING 103
SWIDTH 923 0
DWIDTH 14 0
BBX 14 14 0 -3
BITMAP
0000
0000
0000
0000
0000
0FE8
1838
3018
3018
1818
0FF8
0018
1818
0FF0
ENDCHAR
STARTCHAR char104
ENCODING 104
SWIDTH 923 0
DWIDTH 14 0
BBX 14 14 0 -3
BITMAP
0000
0000
6000
6000
6000
6FC0
7860
6030
6030
6030
6030
0000
0000
0000
ENDCHAR
STARTCHAR char105
ENCODING 105
SWIDTH 923 0
DWIDTH 14 0
BBX 14 14 0 -3
BITMAP
0000
0000
0300
0300
0000
0F00
0300
0300
0300
0300
1FE0
0000
0000
0000
ENDCHAR
STARTCHAR char106
ENCODING 106
SWIDTH 923 0
DWIDTH 14 0
BBX 14 14 0 -3
BITMAP
0000
0000
0060
0060
0000
01E0
0060
0060
0060
0060
0060
1860
0CC0
0780
ENDCHAR
STARTCHAR char107
ENCODING 107
SWIDTH 923 0
DWIDTH 14 0
BBX 14 14 0 -3
BITMAP
0000
0000
1800
1800
1860
18C0
1980
1B00
1F80
1CC0
1860
0000
0000
0000
ENDCHAR
STARTCHAR char108
ENCODING 108
SWIDTH 923 0
DWIDTH 14 0
BBX 14 14 0 -3
BITMAP
0000
0000
0F00
0300
0300
0300
0300
0300
0300
0300
1FE0
0000
0000
0000
ENDCHAR
STARTCHAR char109
ENCODING 109
SWIDTH 923 0
DWIDTH 14 0
BBX 14 14 0 -3
BITMAP
0000
0000
0000
0000
0000
5CE0
77B0
6318
6318
6318
6318
0000
0000
0000
ENDCHAR
STARTCHAR char110
ENCODING 110
SWIDTH 923 0
DWIDTH 14 0
BBX 14 14 0 -3
BITMAP
0000
0000
0000
0000
0000
6FC0
7860
7030
6030
6030
6030
0000
0000
0000
ENDCHAR
STARTCHAR char111
ENCODING 111
SWIDTH 923 0
DWIDTH 14 0
BBX 14 14 0 -3
BITMAP
0000
0000
0000
0000
0000
1FE0
3030
6018
6018
3030
1FE0
0000
0000
0000
ENDCHAR
STARTCHAR char112
ENCODING 112
SWIDTH 923 0
DWIDTH 14 0
BBX 14 14 0 -3
BITMAP
0000
0000
0000
0000
0000
6FC0
7060
6030
6030
7060
6FC0
6000
6000
6000
ENDCHAR
STARTCHAR char113
ENCODING 113
SWIDTH 923 0
DWIDTH 14 0
BBX 14 14 0 -3
BITMAP
0000
0000
0000
0000
0000
0FD8
1838
3018
3018
1838
0FD8
0018
0018
0018
ENDCHAR
STARTCHAR char114
ENCODING 114
SWIDTH 923 0
DWIDTH 14 0
BBX 14 14 0 -3
BITMAP
0000
0000
0000
0000
6FC0
3860
3030
3000
3000
3000
3000
0000
0000
0000
ENDCHAR
STARTCHAR char115
ENCODING 115
SWIDTH 923 0
DWIDTH 14 0
BBX 14 14 0 -3
BITMAP
0000
0000
0000
0000
1FE0
3030
3000
1FE0
0030
3030
1FE0
0000
0000
0000
ENDCHAR
STARTCHAR char116
ENCODING 116
SWIDTH 923 0
DWIDTH 14 0
BBX 14 14 0 -3
BITMAP
0000
0000
0000
0600
0600
3FC0
0600
0600
0600
0630
03E0
0000
0000
0000
ENDCHAR
STARTCHAR char117
ENCODING 117
SWIDTH 923 0
DWIDTH 14 0
BBX 14 14 0 -3
BITMAP
0000
0000
0000
0000
0000
3018
3018
3018
3018
1838
0FD8
0000
0000
0000
ENDCHAR
STARTCHAR char118
ENCODING 118
SWIDTH 923 0
DWIDTH 14 0
BBX 14 14 0 -3
BITMAP
0000
0000
0000
0000
0000
6018
3030
1860
0CC0
0780
0300
0000
0000
0000
ENDCHAR
STARTCHAR char119
ENCODING 119
SWIDTH 923 0
DWIDTH 14 0
BBX 14 14 0 -3
BITMAP
0000
0000
0000
0000
0000
6018
6018
6318
37B0
3CF0
1860
0000
0000
0000
ENDCHAR
STARTCHAR char120
ENCODING 120
SWIDTH 923 0
DWIDTH 14 0
BBX 14 14 0 -3
BITMAP
0000
0000
0000
0000
0000
3030
0CC0
0300
0300
0CC0
3030
0000
0000
0000
ENDCHAR
STARTCHAR char121
ENCODING 121
SWIDTH 923 0
DWIDTH 14 0
BBX 14 14 0 -3
BITMAP
0000
0000
0000
0000
0000
3018
3018
3018
3018
1838
0FD8
0018
1830
0FE0
ENDCHAR
STARTCHAR char122
ENCODING 122
SWIDTH 923 0
DWIDTH 14 0
BBX 14 14 0 -3
BITMAP
0000
0000
0000
0000
0000
3FF0
0060
0180
0600
1800
3FF0
0000
0000
0000
ENDCHAR
STARTCHAR char123
ENCODING 123
SWIDTH 923 0
DWIDTH 14 0
BBX 14 14 0 -3
BITMAP
0000
01E0
0300
0600
0600
0300
0E00
0300
0600
0600
0300
01E0
0000
0000
ENDCHAR
STARTCHAR char124
ENCODING 124
SWIDTH 923 0
DWIDTH 14 0
BBX 14 14 0 -3
BITMAP
0000
0300
0300
0300
0300
0300
0300
0300
0300
0300
0300
0300
0000
0000
ENDCHAR
STARTCHAR char125
ENCODING 125
SWIDTH 923 0
DWIDTH 14 0
BBX 14 14 0 -3
BITMAP
0000
1E00
0300
0180
0180
0300
01C0
0300
0180
0180
0300
1E00
0000
0000
ENDCHAR
STARTCHAR char126
ENCODING 126
SWIDTH 923 0
DWIDTH 14 0
BBX 14 14 0 -3
BITMAP
0000
0000
0000
0000
0000
1C00
3718
63B0
00E0
0000
0000
0000
0000
0000
ENDCHAR
STARTCHAR char127
ENCODING 127
SWIDTH 923 0
DWIDTH 14 0
BBX 14 14 0 -3
BITMAP
0000
0000
0000
0000
0000
0000
0000
0000
0000
0000
0000
0000
0000
0000
ENDCHAR
STARTCHAR char30
ENCODING 163
SWIDTH 923 0
DWIDTH 14 0
BBX 14 14 0 -3
BITMAP
0000
0000
03E0
0630
0C00
0600
3FC0
0600
0C00
1F30
19E0
0000
0000
0000
ENDCHAR
STARTCHAR char167
ENCODING 167
SWIDTH 923 0
DWIDTH 14 0
BBX 14 14 0 -3
BITMAP
0000
07E0
0C30
0600
1F80
30C0
1860
0C30
07E0
0180
30C0
1F80
0000
0000
ENDCHAR
STARTCHAR char169
ENCODING 169
SWIDTH 923 0
DWIDTH 14 0
BBX 14 14 0 -3
BITMAP
0000
0000
0FC0
1860
3030
2310
2410
2410
2310
3030
1860
0FC0
0000
0000
ENDCHAR
STARTCHAR char183
ENCODING 183
SWIDTH 923 0
DWIDTH 14 0
BBX 14 14 0 -3
BITMAP
0000
0000
0000
0000
0000
0000
0300
0300
0000
0000
0000
0000
0000
0000
ENDCHAR
STARTCHAR char45
ENCODING 247
SWIDTH 923 0
DWIDTH 14 0
BBX 14 14 0 -3
BITMAP
0000
0000
0000
0300
0300
0000
1FE0
0000
0300
0300
0000
0000
0000
0000
ENDCHAR
STARTCHAR char28
ENCODING 960
SWIDTH 923 0
DWIDTH 14 0
BBX 14 14 0 -3
BITMAP
0000
0000
0000
0000
0000
7FF8
1860
1860
1860
1860
1860
0000
0000
0000
ENDCHAR
STARTCHAR char8592
ENCODING 8592
SWIDTH 923 0
DWIDTH 14 0
BBX 14 14 0 -3
BITMAP
0000
0000
0000
0C00
1800
3000
7FF8
7FF8
3000
1800
0C00
0000
0000
0000
ENDCHAR
STARTCHAR char8593
ENCODING 8593
SWIDTH 923 0
DWIDTH 14 0
BBX 14 14 0 -3
BITMAP
0000
0300
0780
0FC0
1B60
1320
0300
0300
0300
0300
0300
0300
0300
0000
ENDCHAR
STARTCHAR char8594
ENCODING 8594
SWIDTH 923 0
DWIDTH 14 0
BBX 14 14 0 -3
BITMAP
0000
0000
0000
00C0
0060
0030
7FF8
7FF8
0030
0060
00C0
0000
0000
0000
ENDCHAR
STARTCHAR char8595
ENCODING 8595
SWIDTH 923 0
DWIDTH 14 0
BBX 14 14 0 -3
BITMAP
0000
0300
0300
0300
0300
0300
0300
0300
1320
1B60
0FC0
0780
0300
0000
ENDCHAR
STARTCHAR char8710
ENCODING 8710
SWIDTH 923 0
DWIDTH 14 0
BBX 14 14 0 -3
BITMAP
0000
0300
0780
0780
0CC0
0CC0
1860
1860
3030
3030
7FF8
0000
0000
0000
ENDCHAR
STARTCHAR char8734
ENCODING 8734
SWIDTH 923 0
DWIDTH 14 0
BBX 14 14 0 -3
BITMAP
0000
0000
0000
0000
1CE0
37B0
6318
6318
37B0
1CE0
0000
0000
0000
0000
ENDCHAR
STARTCHAR char8745
ENCODING 8745
SWIDTH 923 0
DWIDTH 14 0
BBX 14 14 0 -3
BITMAP
0000
0000
0780
0CC0
1860
1860
3030
3030
3030
3030
3030
0000
0000
0000
ENDCHAR
STARTCHAR char8746
ENCODING 8746
SWIDTH 923 0
DWIDTH 14 0
BBX 14 14 0 -3
BITMAP
0000
0000
3030
3030
3030
3030
3030
1860
1860
0CC0
0780
0000
0000
0000
ENDCHAR
STARTCHAR char61
ENCODING 8776
SWIDTH 923 0
DWIDTH 14 0
BBX 14 14 0 -3
BITMAP
0000
0000
0000
0000
0E30
1B60
31C0
0E30
1B60
31C0
0000
0000
0000
0000
ENDCHAR
STARTCHAR char29
ENCODING 8800
SWIDTH 923 0
DWIDTH 14 0
BBX 14 14 0 -3
BITMAP
0000
0000
0000
00C0
00C0
3FF0
0300
0300
3FF0
0C00
0C00
0000
0000
0000
ENDCHAR
STARTCHAR char26
ENCODING 8804
SWIDTH 923 0
DWIDTH 14 0
BBX 14 14 0 -3
BITMAP
0000
0000
0038
01C0
0E00
7000
0E00
01C0
0038
0000
7FF8
0000
0000
0000
ENDCHAR
STARTCHAR char27
ENCODING 8805
SWIDTH 923 0
DWIDTH 14 0
BBX 14 14 0 -3
BITMAP
0000
0000
7000
0E00
01C0
0038
01C0
0E00
7000
0000
7FF8
0000
0000
0000
ENDCHAR
STARTCHAR char8992
ENCODING 8992
SWIDTH 923 0
DWIDTH 14 0
BBX 14 14 0 -3
BITMAP
0000
0000
01E0
0330
0330
0300
0300
0300
0300
0300
0300
0300
0300
0300
ENDCHAR
STARTCHAR char8993
ENCODING 8993
SWIDTH 923 0
DWIDTH 14 0
BBX 14 14 0 -3
BITMAP
0300
0300
0300
0300
0300
0300
0300
0300
0300
3300
3300
1E00
0000
0000
ENDCHAR
STARTCHAR char16
ENCODING 9146
SWIDTH 923 0
DWIDTH 14 0
BBX 14 14 0 -3
BITMAP
FFFC
0000
0000
0000
0000
0000
0000
0000
0000
0000
0000
0000
0000
0000
ENDCHAR
STARTCHAR char17
ENCODING 9147
SWIDTH 923 0
DWIDTH 14 0
BBX 14 14 0 -3
BITMAP
0000
0000
0000
FFFC
0000
0000
0000
0000
0000
0000
0000
0000
0000
0000
ENDCHAR
STARTCHAR char19
ENCODING 9148
SWIDTH 923 0
DWIDTH 14 0
BBX 14 14 0 -3
BITMAP
0000
0000
0000
0000
0000
0000
0000
0000
0000
0000
FFFC
0000
0000
0000
ENDCHAR
STARTCHAR char20
ENCODING 9149
SWIDTH 923 0
DWIDTH 14 0
BBX 14 14 0 -3
BITMAP
0000
0000
0000
0000
0000
0000
0000
0000
0000
0000
0000
0000
0000
FFFC
ENDCHAR
STARTCHAR char3
ENCODING 9225
SWIDTH 923 0
DWIDTH 14 0
BBX 14 14 0 -3
BITMAP
0000
6600
6600
7E00
6600
6600
01F8
0060
0060
0060
0060
0000
0000
0000
ENDCHAR
STARTCHAR char6
ENCODING 9226
SWIDTH 923 0
DWIDTH 14 0
BBX 14 14 0 -3
BITMAP
0000
6000
6000
6000
6000
61F0
7D80
01E0
0180
0180
0180
0000
0000
0000
ENDCHAR
STARTCHAR char10
ENCODING 9227
SWIDTH 923 0
DWIDTH 14 0
BBX 14 14 0 -3
BITMAP
0000
6300
6300
6300
3600
1FF0
08C0
00C0
00C0
00C0
00C0
0000
0000
0000
ENDCHAR
STARTCHAR char4
ENCODING 9228
SWIDTH 923 0
DWIDTH 14 0
BBX 14 14 0 -3
BITMAP
0000
7C00
6000
7800
6000
61F0
6180
01E0
0180
0180
0180
0000
0000
0000
ENDCHAR
STARTCHAR char5
ENCODING 9229
SWIDTH 923 0
DWIDTH 14 0
BBX 14 14 0 -3
BITMAP
0000
3800
6400
6000
6000
65E0
3990
0190
01E0
01B0
0190
0000
0000
0000
ENDCHAR
STARTCHAR char9
ENCODING 9252
SWIDTH 923 0
DWIDTH 14 0
BBX 14 14 0 -3
BITMAP
0000
6300
7300
7B00
6F00
67C0
63C0
00C0
00C0
00C0
00F8
0000
0000
0000
ENDCHAR
STARTCHAR char18
ENCODING 9472
SWIDTH 923 0
DWIDTH 14 0
BBX 14 14 0 -3
BITMAP
0000
0000
0000
0000
0000
0000
FFFC
0000
0000
0000
0000
0000
0000
0000
ENDCHAR
STARTCHAR char9474
ENCODING 9474
SWIDTH 923 0
DWIDTH 14 0
BBX 14 14 0 -3
BITMAP
0200
0200
0200
0200
0200
0200
0200
0200
0200
0200
0200
0200
0200
0200
ENDCHAR
STARTCHAR char13
ENCODING 9484
SWIDTH 923 0
DWIDTH 14 0
BBX 14 14 0 -3
BITMAP
0000
0000
0000
0000
0000
0000
03FC
0200
0200
0200
0200
0200
0200
0200
ENDCHAR
STARTCHAR char12
ENCODING 9488
SWIDTH 923 0
DWIDTH 14 0
BBX 14 14 0 -3
BITMAP
0000
0000
0000
0000
0000
0000
FE00
0200
0200
0200
0200
0200
0200
0200
ENDCHAR
STARTCHAR char14
ENCODING 9492
SWIDTH 923 0
DWIDTH 14 0
BBX 14 14 0 -3
BITMAP
0200
0200
0200
0200
0200
0200
03FC
0000
0000
0000
0000
0000
0000
0000
ENDCHAR
STARTCHAR char11
ENCODING 9496
SWIDTH 923 0
DWIDTH 14 0
BBX 14 14 0 -3
BITMAP
0200
0200
0200
0200
0200
0200
FE00
0000
0000
0000
0000
0000
0000
0000
ENDCHAR
STARTCHAR char9500
ENCODING 9500
SWIDTH 923 0
DWIDTH 14 0
BBX 14 14 0 -3
BITMAP
0200
0200
0200
0200
0200
0200
03FC
0200
0200
0200
0200
0200
0200
0200
ENDCHAR
STARTCHAR char9508
ENCODING 9508
SWIDTH 923 0
DWIDTH 14 0
BBX 14 14 0 -3
BITMAP
0200
0200
0200
0200
0200
0200
FE00
0200
0200
0200
0200
0200
0200
0200
ENDCHAR
STARTCHAR char9516
ENCODING 9516
SWIDTH 923 0
DWIDTH 14 0
BBX 14 14 0 -3
BITMAP
0000
0000
0000
0000
0000
0000
FFFC
0200
0200
0200
0200
0200
0200
0200
ENDCHAR
STARTCHAR char9524
ENCODING 9524
SWIDTH 923 0
DWIDTH 14 0
BBX 14 14 0 -3
BITMAP
0200
0200
0200
0200
0200
0200
FFFC
0000
0000
0000
0000
0000
0000
0000
ENDCHAR
STARTCHAR char15
ENCODING 9532
SWIDTH 923 0
DWIDTH 14 0
BBX 14 14 0 -3
BITMAP
0200
0200
0200
0200
0200
0200
FFFC
0200
0200
0200
0200
0200
0200
0200
ENDCHAR
STARTCHAR char9608
ENCODING 9608
SWIDTH 923 0
DWIDTH 14 0
BBX 14 14 0 -3
BITMAP
FFFC
FFFC
FFFC
FFFC
FFFC
FFFC
FFFC
FFFC
FFFC
FFFC
FFFC
FFFC
FFFC
FFFC
ENDCHAR
STARTCHAR char9617
ENCODING 9617
SWIDTH 923 0
DWIDTH 14 0
BBX 14 14 0 -3
BITMAP
9120
0408
2040
8910
1020
4488
0000
9120
0408
2040
8910
1020
4488
0000
ENDCHAR
STARTCHAR char9618
ENCODING 9618
SWIDTH 923 0
DWIDTH 14 0
BBX 14 14 0 -3
BITMAP
5554
AAA8
5554
AAA8
5554
AAA8
5554
AAA8
5554
AAA8
5554
AAA8
5554
AAA8
ENDCHAR
STARTCHAR char9702
ENCODING 9702
SWIDTH 923 0
DWIDTH 14 0
BBX 14 14 0 -3
BITMAP
0000
0000
0000
0000
0780
0CC0
0840
0840
0CC0
0780
0000
0000
0000
0000
ENDCHAR
STARTCHAR char9724
ENCODING 9724
SWIDTH 923 0
DWIDTH 14 0
BBX 14 14 0 -3
BITMAP
0000
0000
0000
0000
0FC0
0FC0
0FC0
0FC0
0FC0
0FC0
0000
0000
0000
0000
ENDCHAR
STARTCHAR char9827
ENCODING 9827
SWIDTH 923 0
DWIDTH 14 0
BBX 14 14 0 -3
BITMAP
0000
0700
0F80
0F80
0F80
7770
FFF8
FFF8
FFF8
7770
0700
0F80
1FC0
0000
ENDCHAR
STARTCHAR char9830
ENCODING 9830
SWIDTH 923 0
DWIDTH 14 0
BBX 14 14 0 -3
BITMAP
0000
0200
0700
0F80
1FC0
3FE0
7FF0
7FF0
3FE0
1FC0
0F80
0700
0200
0000
ENDCHAR
ENDFONT
